<?xml version="1.0" encoding="utf-8"?><svg xmlns="http://www.w3.org/2000/svg" xmlns:xlink="http://www.w3.org/1999/xlink"><symbol viewBox="0 0 28 32" id="accordion_creativity" xmlns="http://www.w3.org/2000/svg"><path d="M26.5 16.497h-3a1.5 1.5 0 01-1.5-1.5v-6A1.5 1.5 0 0123.5 7.5h3A1.5 1.5 0 0128 8.998v6a1.5 1.5 0 01-1.5 1.5zm-3-15a1.5 1.5 0 013 0v4.5h-3zm-8 23h-3a1.5 1.5 0 01-1.5-1.499v-6a1.5 1.5 0 011.5-1.5h3a1.5 1.5 0 011.5 1.5v6a1.5 1.5 0 01-1.5 1.5zm-3-23a1.5 1.5 0 013 0v12.501h-3zm-8 19h-3a1.5 1.5 0 01-1.5-1.5v-6a1.5 1.5 0 011.5-1.499h3a1.5 1.5 0 011.5 1.5v6a1.5 1.5 0 01-1.5 1.5zm-3-19a1.5 1.5 0 013 0V10h-3zm3 29a1.5 1.5 0 11-3 0v-8.499h3zm11 0a1.5 1.5 0 11-3 0v-4.5h3zm11 0a1.5 1.5 0 11-3 0V18h3z"/></symbol><symbol viewBox="0 0 30.66 30.3" id="accordion_photo" xmlns="http://www.w3.org/2000/svg"><path d="M30 23.999c0 .65-.419 1.2-1 1.407v1.683a1.496 1.496 0 11-1.908 1.909h-1.684c-.207.58-.756 1-1.408 1-.652 0-1.202-.42-1.408-1h-1.684c-.207.58-.756 1-1.408 1-.652 0-1.202-.42-1.408-1h-1.684c-.207.58-.756 1-1.408 1-.652 0-1.202-.42-1.408-1h-1.684c-.206.58-.756 1-1.408 1-.652 0-1.202-.42-1.408-1H7.408c-.207.58-.756 1-1.408 1-.652 0-1.202-.42-1.408-1H2.908c-.207.58-.756 1-1.408 1a1.496 1.496 0 11-.5-2.91v-1.682C.419 25.2 0 24.65 0 24c0-.654.419-1.202 1-1.41v-1.682c-.581-.208-1-.757-1-1.409 0-.651.419-1.201 1-1.408v-1.684c-.581-.206-1-.755-1-1.407s.419-1.202 1-1.41v-1.683c-.581-.206-1-.755-1-1.408 0-.652.419-1.202 1-1.407V7.406C.419 7.2 0 6.65 0 5.998c0-.652.419-1.202 1-1.408V2.905C.419 2.7 0 2.15 0 1.498a1.495 1.495 0 012.908-.5h1.684c.206-.582.756-1 1.408-1 .652 0 1.201.418 1.408 1h1.684c.206-.582.756-1 1.408-1 .652 0 1.202.418 1.408 1h1.684c.206-.582.756-1 1.408-1 .652 0 1.201.418 1.408 1h1.684c.206-.582.756-1 1.408-1 .652 0 1.201.418 1.408 1h1.684c.206-.582.756-1 1.408-1 .652 0 1.201.418 1.408 1h1.684c.206-.582.756-1 1.408-1a1.5 1.5 0 011.5 1.5c0 .652-.419 1.202-1 1.407V4.59c.581.206 1 .756 1 1.408 0 .652-.419 1.201-1 1.408v1.685c.581.205 1 .755 1 1.407 0 .653-.419 1.202-1 1.408v1.683a1.5 1.5 0 011 1.41c0 .652-.419 1.201-1 1.407v1.684c.581.207 1 .757 1 1.408a1.5 1.5 0 01-1 1.409v1.683c.581.207 1 .755 1 1.409zM26 3.997H4v22.001h22zm-13 16l7-8.498 4.5 7v6h-19l6-6zm-3-6.999a3 3 0 110-6 3 3 0 010 6z"/></symbol><symbol viewBox="0 0 32 32" id="accordion_web_design" xmlns="http://www.w3.org/2000/svg"><path d="M16 31.998c-8.836 0-16-7.163-16-16 0-8.836 7.164-16 16-16 8.837 0 16 7.164 16 16 0 8.837-7.163 16-16 16zm0-29c-7.18 0-13 5.82-13 13s5.82 13 13 13 13-5.82 13-13-5.82-13-13-13zm0 22.5A9.5 9.5 0 1116 6.5a9.5 9.5 0 010 18.997zm0-16a6.5 6.5 0 100 13 6.5 6.5 0 000-13zm0 9.5a3 3 0 110-6 3 3 0 010 6z"/></symbol><symbol viewBox="0 0 31 28" id="creativity" xmlns="http://www.w3.org/2000/svg"><path d="M30 23h-9.5v2.5l2 2v.5h-13v-.5l2-2V23H2a1.5 1.5 0 01-1.5-1.5v-20A1.5 1.5 0 012 0h28a1.5 1.5 0 011.5 1.5v20A1.5 1.5 0 0130 23zm-.5-21h-27v17h27zM13 9c.414 0 .79.168 1.06.44l.94.938 2.94-2.939a1.5 1.5 0 012.12 2.121l-4 4a1.496 1.496 0 01-2.122 0l-2-2A1.5 1.5 0 0113 9z"/></symbol><symbol viewBox="0 0 32.09 30.5" id="css_html" xmlns="http://www.w3.org/2000/svg"><path d="M32 16.5a1.5 1.5 0 01-1.5 1.5 1.49 1.49 0 01-1.02-.406l-.003.004L16.038 4.159 16 4.122 2.554 17.569v-.001a1.5 1.5 0 11-2.092-2.15L14.918.96c.273-.283.656-.46 1.08-.46H16c.027 0 .053 0 .08.002h.012a2.52 2.52 0 01.072.007c.367.04.694.212.933.468L23 6.877V5.5a1.5 1.5 0 113 0v4.378l5.598 5.598-.004.004c.25.268.406.625.406 1.02zM29 19v10.5a1.5 1.5 0 01-1.5 1.5h-3V19h-6v12h-14A1.5 1.5 0 013 29.5V19L16 6zm-15.5 0h-6v6h6z"/></symbol><symbol viewBox="0 0 32 32" id="digital" xmlns="http://www.w3.org/2000/svg"><path d="M30.5 32h-29A1.5 1.5 0 010 30.5v-29A1.5 1.5 0 011.5 0h29A1.5 1.5 0 0132 1.5v29a1.5 1.5 0 01-1.5 1.5zM29 3H3v26h26zM12 4.5a1.5 1.5 0 010 3H7.5V12a1.5 1.5 0 11-3 0V4.5zM4.5 20a1.5 1.5 0 113 0v4.5H12a1.5 1.5 0 110 3H4.5zM20 4.5h7.5V12a1.5 1.5 0 11-3 0V7.5H20a1.5 1.5 0 110-3zm0 20h4.5V20a1.5 1.5 0 113 0v7.5H20a1.5 1.5 0 010-3z"/></symbol><symbol viewBox="0 0 12.01 25.8" id="facebook" xmlns="http://www.w3.org/2000/svg"><path d="M12.09.199V4.32s-3.038-.303-3.799.861c-.416.636-.169 2.5-.206 3.838h4.03c-.341 1.564-.585 2.624-.836 3.978H8.063v12.804H2.48V13.047H.106V9.02h2.349c.12-2.946.165-5.864 1.629-7.35C5.728-.001 7.297.199 12.089.199z"/></symbol><symbol viewBox="0 0 25.6 25.6" id="instagram" xmlns="http://www.w3.org/2000/svg"><path d="M22.7 25.8H3.5a3.2 3.2 0 01-3.2-3.2V3.4A3.2 3.2 0 013.5.2h19.2a3.2 3.2 0 013.2 3.2v19.2a3.2 3.2 0 01-3.2 3.2zM13.1 8.04a4.957 4.957 0 00-4.498 2.88h-.005l-.022.054a4.908 4.908 0 00-.128.322c-.02.052-.04.103-.057.155a4.998 4.998 0 00-.095.34c-.014.054-.03.106-.042.16a4.99 4.99 0 00-.061.368c-.007.05-.017.099-.023.15a4.96 4.96 0 109.861 0c-.005-.051-.015-.1-.022-.15a4.985 4.985 0 00-.061-.368c-.012-.054-.028-.106-.042-.16a5.004 5.004 0 00-.095-.34c-.017-.052-.038-.103-.057-.155a4.916 4.916 0 00-.128-.322l-.022-.055h-.005A4.957 4.957 0 0013.1 8.04zm9.92-3.68a1.28 1.28 0 00-1.28-1.28h-2.56a1.28 1.28 0 00-1.28 1.28v2.56c0 .707.573 1.28 1.28 1.28h2.56a1.28 1.28 0 001.28-1.28zm0 6.56h-2.36a7.84 7.84 0 01-7.56 9.92 7.84 7.84 0 01-7.56-9.92H3.18v10.72c0 .707.573 1.28 1.28 1.28h17.28a1.28 1.28 0 001.28-1.28z"/></symbol><symbol viewBox="0 0 32 30.63" id="photography" xmlns="http://www.w3.org/2000/svg"><path d="M30.74 9.503a15.72 15.72 0 00-8.243-8.243c1-.787 2.258-1.26 3.629-1.26A5.874 5.874 0 0132 5.874a5.846 5.846 0 01-1.26 3.629zM30.5 16c0 3.852-1.512 7.343-3.963 9.94l2.029 2.028a1.483 1.483 0 01-2.097 2.097l-2.18-2.178A14.419 14.419 0 0116 30.5a14.42 14.42 0 01-8.276-2.603L5.561 30.06a1.5 1.5 0 11-2.121-2.12l2.011-2.012C3.008 23.332 1.5 19.845 1.5 16 1.5 7.992 7.992 1.5 16 1.5S30.5 7.992 30.5 16zM16 4.5C9.649 4.5 4.5 9.648 4.5 16c0 6.351 5.149 11.5 11.5 11.5S27.5 22.35 27.5 16c0-6.352-5.15-11.5-11.5-11.5zm6 13h-6a1.5 1.5 0 01-1.5-1.5V8a1.5 1.5 0 013 0v6.5H22a1.5 1.5 0 010 3zM1.287 9.705A5.967 5.967 0 010 6a6 6 0 016-6c1.4 0 2.685.483 3.706 1.287a16.055 16.055 0 00-8.419 8.418z"/></symbol><symbol viewBox="0 0 19.64 25.93" id="pinterest" xmlns="http://www.w3.org/2000/svg"><path d="M8.05 16.854c-.208.833-.419 1.706-.637 2.56-.215.842-.405 1.696-.718 2.47-.519 1.281-1.178 2.52-2.043 3.521-.575.667-.453.4-.626.365-.132-.027-.143-.157-.17-.345-.14-1.018-.044-2.195.008-3.34.06-1.303.334-2.387.589-3.47.484-2.063.946-4.087 1.435-6.164.032-.138.12-.366.09-.445-.222-.577-.366-1.095-.429-1.7a5.41 5.41 0 01.14-1.944c.276-1.058.912-1.995 1.893-2.338.624-.216 1.315-.118 1.735.132.432.259.729.667.867 1.246.148.615.039 1.35-.08 1.891-.267 1.219-.618 2.134-.937 3.31-.158.583-.337 1.182-.19 1.812.137.578.438.976.848 1.275.426.31.93.48 1.625.455 1.228-.043 2.081-.828 2.651-1.568.913-1.185 1.465-2.784 1.675-4.686.068-.614.117-1.319.07-2.014-.088-1.284-.49-2.317-1.127-3.117-.606-.762-1.466-1.37-2.512-1.71-1.037-.34-2.472-.452-3.747-.234-2.318.397-3.952 1.714-4.915 3.533a7.079 7.079 0 00-.837 3.41c0 1.05.26 1.865.678 2.5.133.201.328.367.458.597.185.326-.028.811-.12 1.164-.11.425-.12 1.012-.617 1.022-.206.004-.464-.146-.638-.243-1.305-.721-2.097-2.033-2.422-3.734a8.935 8.935 0 010-3.238c.19-.967.544-1.858.937-2.581a9.238 9.238 0 013.459-3.563C5.559 1.023 6.818.56 8.35.337A16.432 16.432 0 019.955.206a9.638 9.638 0 014.326.809 8.85 8.85 0 012.98 2.146c.838.915 1.448 1.98 1.834 3.309.202.692.398 1.432.398 2.287 0 .858-.181 1.613-.308 2.368-.474 2.828-1.819 5.141-3.838 6.458a6.636 6.636 0 01-1.754.81c-.667.193-1.428.339-2.243.282a4.599 4.599 0 01-1.983-.577c-.54-.305-.994-.679-1.316-1.244z"/></symbol><symbol viewBox="0 0 32 32.12" id="seo" xmlns="http://www.w3.org/2000/svg"><path d="M31.065 25.89l-14.471 5.987a1.493 1.493 0 01-1.188 0L.936 25.89A1.5 1.5 0 010 24.5v-23A1.5 1.5 0 012.073.114l.003.001.013.005L16 5.877 29.912.12l.013-.005.003-.001A1.5 1.5 0 0132 1.5v23a1.5 1.5 0 01-.935 1.39zM14.5 8.502L3 3.743v19.754l11.5 4.759zM29 3.743l-11.5 4.76v19.753l11.5-4.76zm-9.12 6.891l5.5-2.5a1.5 1.5 0 011.241 2.731l-5.5 2.5a1.5 1.5 0 01-1.241-2.731zm0 5.5l5.5-2.5a1.5 1.5 0 011.241 2.731l-5.5 2.5a1.5 1.5 0 01-1.241-2.73zm0 5.5l5.5-2.5a1.5 1.5 0 011.241 2.731l-5.5 2.5a1.5 1.5 0 01-1.241-2.731zM6 8c.221 0 .431.048.62.134l5.5 2.5a1.5 1.5 0 11-1.24 2.731l-5.5-2.5A1.5 1.5 0 016 8zm0 5.5c.221 0 .431.048.62.134l5.5 2.5a1.5 1.5 0 11-1.24 2.731l-5.5-2.5A1.5 1.5 0 016 13.5zM6 19c.221 0 .431.048.62.134l5.5 2.5a1.5 1.5 0 11-1.24 2.731l-5.5-2.5A1.5 1.5 0 016 19z"/></symbol><symbol viewBox="0 0 25.6 21.06" id="twitter" xmlns="http://www.w3.org/2000/svg"><path d="M17.513.601c2.034-.036 3.117.705 4.15 1.648.879-.076 2.02-.566 2.692-.908l.653-.357c-.384 1.037-.904 1.85-1.704 2.466-.178.136-.354.321-.577.408v.013c1.14-.011 2.08-.526 2.973-.805v.013c-.469.745-1.104 1.502-1.781 2.044l-.82.651c.015 1.207-.018 2.359-.244 3.373-1.311 5.895-4.787 9.898-10.288 11.612-1.976.615-5.168.868-7.432.306-1.122-.278-2.136-.593-3.088-1.008a12.305 12.305 0 01-1.486-.767L.1 19.009c.51.015 1.108.156 1.678.064.517-.084 1.023-.062 1.5-.166 1.188-.261 2.243-.606 3.151-1.137.441-.259 1.11-.56 1.423-.933-.59.01-1.125-.127-1.563-.281-1.7-.6-2.688-1.703-3.332-3.36.515.057 1.998.19 2.345-.102-.648-.036-1.271-.411-1.717-.69-1.367-.855-2.481-2.289-2.473-4.496l.538.255c.344.145.693.222 1.102.307.173.036.52.137.718.063h-.026c-.264-.307-.695-.512-.96-.843-.878-1.09-1.7-2.766-1.18-4.764a6.1 6.1 0 01.564-1.367l.026.012c.102.214.33.371.474.55.448.555 1 1.054 1.563 1.494 1.918 1.5 3.645 2.422 6.42 3.104a9.967 9.967 0 002.357.307c-.236-.687-.16-1.8.025-2.465.468-1.673 1.483-2.88 2.973-3.525a6.31 6.31 0 011.166-.359l.64-.076z"/></symbol><symbol viewBox="0 0 32 32" id="web_design" xmlns="http://www.w3.org/2000/svg"><path d="M30.5 32h-29A1.5 1.5 0 010 30.5v-29A1.5 1.5 0 011.5 0h29A1.5 1.5 0 0132 1.5v29a1.5 1.5 0 01-1.5 1.5zM29 3H3v26h26zM5.215 16.239v-.002l4-2.5v.002a1.49 1.49 0 01.785-.222c.311 0 .6.095.84.258l.006-.01 6.63 4.42 7.639-5.39a1.5 1.5 0 011.764 2.426l-8.5 6a1.493 1.493 0 01-1.74.012l-6.657-4.438-3.135 1.96a1.5 1.5 0 01-1.631-2.517z"/></symbol></svg>